HIERARCHY
ROOT pelvis
{
  OFFSET 0 0 0
  CHANNELS 6 Xposition Yposition Zposition Zrotation Xrotation Yrotation
  JOINT pelvis_right_femur
  {
    OFFSET -11.43119 -3.542788 0.2090856
    CHANNELS 3 Zrotation Xrotation Yrotation
    JOINT right_femur_tibia
    {
      OFFSET -1.028693 -40.73281 5
      CHANNELS 3 Zrotation Xrotation Yrotation
      JOINT right_tibia_foot
      {
        OFFSET -0.5013517 -42.05707 -5
        CHANNELS 3 Zrotation Xrotation Yrotation
        End Site
        {
          OFFSET 0 -5 10
        }
      }
    }
  }
  JOINT pelvis_left_femur
  {
    OFFSET 11.43119 -3.542788 0.2090856
    CHANNELS 3 Zrotation Xrotation Yrotation
    JOINT left_femur_tibia
    {
      OFFSET 1.028693 -40.73281 5
      CHANNELS 3 Zrotation Xrotation Yrotation
      JOINT left_tibia_foot
      {
        OFFSET 0.3200228 -42.98253 -5
        CHANNELS 3 Zrotation Xrotation Yrotation
        End Site
        {
          OFFSET 0 -5 10
        }
      }
    }
  }
  JOINT pelvis_spine1
  {
    OFFSET 0 8.64413 -3.209807
    CHANNELS 3 Zrotation Xrotation Yrotation
    JOINT spine1
    {
      OFFSET 0 29.53957 -1.762685
      CHANNELS 3 Zrotation Xrotation Yrotation
      JOINT spine2
      {
        OFFSET 0 16.36153 -0.1422377
        CHANNELS 3 Zrotation Xrotation Yrotation
        JOINT neck
        {
          OFFSET 0 11.60093 5
          CHANNELS 3 Zrotation Xrotation Yrotation
          End Site
          {
            OFFSET 0 20 0
          }
        }
      }
      JOINT right_manubrium
      {
        OFFSET -4.671311 15.89868 4
        CHANNELS 3 Zrotation Xrotation Yrotation
        JOINT right_clavicle
        {
          OFFSET -13.601 1.573642 -2.74176
          CHANNELS 3 Zrotation Xrotation Yrotation
          JOINT right_humerus
          {
            OFFSET -0.06331682 -27.72702 2.252146
            CHANNELS 3 Zrotation Xrotation Yrotation
            JOINT right_radius
            {
              OFFSET -0.5696302 -23.92083 0.4042105
              CHANNELS 3 Zrotation Xrotation Yrotation
              End Site
              {
                OFFSET 0 -15 0
              }
            }
          }
        }
      }
      JOINT left_manubrium
      {
        OFFSET 4.671311 15.89868 4
        CHANNELS 3 Zrotation Xrotation Yrotation
        JOINT left_clavicle
        {
          OFFSET 13.601 1.573642 -2.74176
          CHANNELS 3 Zrotation Xrotation Yrotation
          JOINT left_humerus
          {
            OFFSET 0.000209614 -29.01858 1.101395
            CHANNELS 3 Zrotation Xrotation Yrotation
            JOINT left_radius
            {
              OFFSET -0.2288314 -24.59216 1.790347
              CHANNELS 3 Zrotation Xrotation Yrotation
              End Site
              {
                OFFSET 0 -15 0
              }
            }
          }
        }
      }
    }
  }
}
MOTION
Frames: 11
Frame Time: 0.0416666666667
0 48.26591 0 -3.026538 -17.61043 -0.6084578 -58.76867 -61.40323 -57.47181 -180 85.15049 -180 5.676337 5.371138 -1.570263 70.0951 -53.16897 66.90572 -180 80.29046 -180 -4.749437 3.463872 -19.38969 -1.09535 20.97379 1.802024 7.907292 14.32199 -9.660072 -12.23737 9.997454 5.2629 9.507262 -27.03188 -1.495953 22.22379 -9.236286 22.2759 -61.8933 -26.11284 11.93864 0 -76.59468 0 -1.185543 -14.75302 25.60917 -28.71082 -31.67972 -5.151049 50.35672 -21.49319 -25.31069 0 -78.87465 0 -16.43743 22.91575 -42.33617
-0.06226314 48.1758 -0.04312337 -2.959872 -17.59204 -0.4562172 -58.82013 -61.50054 -57.42785 -180 85.12394 -180 5.707714 5.279247 -1.649969 70.2836 -53.21367 67.18984 -180 80.29898 -180 -4.721176 3.526247 -19.46901 -1.590122 21.06019 1.987456 8.749412 14.20133 -10.09294 -12.60357 9.923501 5.250232 9.598878 -27.04936 -2.018417 23.86027 -11.37262 21.10298 -62.13928 -23.44495 7.234394 0 -76.43098 0 -5.235395 -17.76738 23.25577 -28.84866 -31.95886 -4.811771 50.26171 -21.47655 -25.39576 0 -79.06356 0 -16.41323 22.87914 -42.28069
0.09145695 48.27157 -0.03206293 -3.126646 -17.48074 -0.2936103 -58.69155 -61.46462 -57.17021 -180 85.19979 -180 5.72433 5.271938 -1.724354 70.43796 -53.27422 67.51326 -180 80.27353 -180 -4.71396 3.562938 -19.51413 -1.718877 21.1511 1.782058 9.631431 14.00798 -10.63353 -13.05008 9.888996 5.353792 9.656683 -27.06424 -2.427243 25.69787 -14.35809 19.93529 -62.6209 -20.63961 1.648389 0 -74.94686 0 -9.772506 -20.35116 20.32817 -29.04753 -32.1514 -4.213035 50.13512 -21.2674 -25.46811 0 -79.42619 0 -16.37572 22.81818 -42.2228
0.1060022 48.15061 -0.01929944 -3.059334 -17.35326 -0.4033994 -58.87293 -61.87571 -57.15475 -180 85.14006 -180 5.726201 5.256758 -1.84164 70.84289 -53.12023 68.05775 -180 80.16872 -180 -4.725219 3.558162 -19.62874 -2.254106 21.29638 1.707796 10.23701 13.59086 -10.95763 -13.49004 9.903557 5.525654 9.694191 -26.98231 -2.720918 27.2947 -17.92147 19.34286 -63.401 -18.10438 -4.080158 0 -71.58527 0 -14.1413 -22.02973 17.01364 -28.9873 -32.34517 -3.579153 50.19166 -21.02063 -25.45634 0 -79.95106 0 -16.33358 22.73662 -42.17732
0.201114 48.10203 -0.01134317 -3.079792 -17.17474 -0.5900242 -59.0222 -62.27991 -57.15632 -180 85.11523 -180 5.71052 5.275417 -1.889796 71.19178 -52.95754 68.58163 -180 80.06936 -180 -4.774219 3.515514 -19.67267 -2.44213 21.49144 1.477721 10.43936 13.16982 -11.09197 -13.83766 9.866629 5.71389 9.770699 -26.91406 -2.947102 28.13514 -21.60831 19.4389 -64.62862 -15.89287 -9.171195 0 -66.02163 0 -17.56632 -22.57091 13.69823 -28.86484 -32.476 -3.044387 50.37242 -20.67812 -25.40575 0 -80.54425 0 -16.30215 22.62055 -42.13114
0.2682875 48.1468 0.1025057 -3.106826 -17.0112 -0.8159697 -59.02218 -62.50924 -57.10628 -180 85.10774 -180 5.649668 5.282541 -1.902158 71.38102 -52.70948 68.82744 -180 79.94909 -180 -4.821649 3.432491 -19.69722 -2.3275 21.47971 1.233444 10.24449 13.13583 -11.10507 -14.1665 9.688309 5.84537 9.854938 -26.98419 -3.202585 27.99022 -24.81636 19.99529 -66.25909 -13.94693 -12.95961 0 -58.74762 0 -19.48968 -22.19028 10.83872 -28.77388 -32.59819 -2.735198 50.7052 -20.2921 -25.30955 0 -81.09457 0 -16.2893 22.47498 -42.07794
0.3026713 48.13297 0.1480572 -3.122583 -16.89347 -1.073265 -59.17107 -62.70529 -57.30392 -180 85.12499 -180 5.598152 5.283447 -1.880642 71.56337 -52.58338 68.94399 -180 79.88542 -180 -4.878644 3.344049 -19.62322 -1.998983 21.55224 1.095667 9.726281 13.18303 -10.94182 -14.47173 9.394044 5.896875 9.931045 -27.10525 -3.5388 27.05953 -27.36592 20.9981 -67.95132 -12.49781 -15.23793 0 -50.79229 0 -19.94348 -21.37544 8.615667 -28.70325 -32.77799 -2.735358 51.10788 -19.98859 -25.18215 0 -81.59848 0 -16.29406 22.28353 -42.02729
0.2757041 48.1382 0.1397396 -3.094377 -16.82388 -1.315847 -59.25457 -62.80975 -57.53597 -180 85.19219 -180 5.503339 5.226116 -1.760014 71.53236 -52.57263 68.82333 -180 79.89266 -180 -4.942442 3.249449 -19.44469 -1.577793 21.59154 1.007649 9.058118 13.45875 -10.73898 -14.82132 9.041012 5.930393 9.952373 -27.24561 -3.902315 25.58365 -29.13533 21.97749 -69.53656 -11.47391 -16.1236 0 -43.37856 0 -19.11443 -20.58797 7.083984 -28.65113 -33.04384 -2.891336 51.56806 -19.72874 -24.97797 0 -81.97694 0 -16.30387 22.05983 -41.96184
0.3328649 48.1923 0.1487096 -3.064361 -16.7733 -1.538666 -59.07406 -62.72751 -57.66839 -180 85.43211 -180 5.388896 5.081911 -1.62954 71.28386 -52.65558 68.50739 -180 79.90485 -180 -5.015347 3.172131 -19.20054 -1.096875 21.55032 0.9067052 8.439407 13.77617 -10.56186 -15.22624 8.721467 5.986624 9.879961 -27.34586 -4.221024 24.16637 -30.44744 22.89522 -70.87378 -10.88552 -16.23117 0 -37.30419 0 -17.57698 -20.08365 6.035106 -28.72381 -33.31838 -3.072805 51.96319 -19.42022 -24.74785 0 -82.17624 0 -16.30603 21.8206 -41.88951
0.07155153 48.13613 0.07722913 -2.806541 -16.74679 -1.852907 -59.79932 -63.02895 -58.39359 -180 85.24412 -180 5.333769 5.375474 -1.331141 71.22593 -52.58096 68.31806 -180 79.98967 -180 -5.094976 3.093701 -18.92283 -1.200542 21.61304 1.140191 8.032236 13.94098 -10.30798 -15.69779 8.433249 6.081985 9.691605 -27.31843 -4.487488 23.24395 -31.32465 23.73825 -71.71445 -10.50218 -15.91798 0 -32.33897 0 -15.7777 -19.70982 5.194153 -28.76452 -33.62244 -3.334466 52.26474 -19.22996 -24.54937 0 -82.31849 0 -16.31956 21.54224 -41.8043
-0.04473299 48.14407 0.03559161 -2.557261 -16.73355 -2.114038 -60.35131 -63.12635 -58.99175 -180 85.20869 -180 5.259175 5.559172 -1.042864 70.937 -52.5673 68.01554 -180 80.039 -180 -5.183214 3.018751 -18.64555 -1.222853 21.61489 1.327976 7.839269 14.11178 -10.10677 -16.20946 8.198843 6.228997 9.413212 -27.25266 -4.653735 22.75808 -31.99734 24.49589 -72.26866 -10.35137 -15.45531 0 -28.72766 0 -13.90362 -19.56135 4.486385 -28.92212 -33.86567 -3.550013 52.45462 -18.98457 -24.40318 0 -82.32128 0 -16.33844 21.25175 -41.71711
